<?xml version="1.0" encoding="UTF-8" standalone="no"?>
<svg
   xmlns:dc="http://purl.org/dc/elements/1.1/"
   xmlns:cc="http://creativecommons.org/ns#"
   xmlns:rdf="http://www.w3.org/1999/02/22-rdf-syntax-ns#"
   xmlns:svg="http://www.w3.org/2000/svg"
   xmlns="http://www.w3.org/2000/svg"
   width="210mm"
   height="297mm"
   viewBox="0 0 210 297"
   version="1.1"
   id="svg31">
  <defs
     id="defs25" />
  <metadata
     id="metadata28">
    <rdf:RDF>
      <cc:Work
         rdf:about="">
        <dc:format>image/svg+xml</dc:format>
        <dc:type
           rdf:resource="http://purl.org/dc/dcmitype/StillImage" />
        <dc:title></dc:title>
      </cc:Work>
    </rdf:RDF>
  </metadata>
  <g
     id="layer1"
     style="display:inline">
    <g
       id="layer3"
       style="display:inline"
       transform="matrix(0.26458333,0,0,0.26458333,-55.562362,68.130149)">
      <g
         id="g1499"
         transform="translate(0,-0.71128707)">
        <path
           style="fill:#020202;stroke-width:0.666667"
           d="m 980.33333,605.58864 c -6.38526,-0.50809 -20.61733,-3.04751 -26.28913,-4.69073 -13.56093,-3.92889 -22.035,-8.7213 -30.37753,-17.17959 -8.47234,-8.58987 -11.87334,-14.79291 -15.51514,-28.29753 -1.61146,-5.97558 -1.73153,-7.41464 -1.73153,-20.75412 0,-13.39868 0.1148,-14.75952 1.76067,-20.86904 6.31046,-23.42492 21.45206,-36.54956 51.2192,-44.39644 21.05526,-5.55035 42.34773,-7.89298 78.47963,-8.63444 L 1059,460.33333 1058.9709,420 c -0.029,-40.40167 -0.4333,-50.32428 -2.6889,-66 -3.3341,-23.17057 -10.9291,-33.07613 -25.9694,-33.86947 -11.91,-0.62822 -23.4017,4.8298 -27.4239,13.02512 -1.6671,3.39677 -1.873,4.50409 -1.7686,9.51102 0.1285,6.15847 1.7826,14.77596 3.295,17.16666 0.8858,1.4001 1.4153,1.5 7.9501,1.5 h 7.0011 l 0.7068,1.83334 c 3.2737,8.49219 4.939,28.54143 3.0041,36.16666 -2.0046,7.89983 -4.7175,12.44955 -11.3415,19.0201 -9.2637,9.18901 -18.53017,13.41043 -33.01097,15.03849 -7.65013,0.8601 -19.38593,-0.0611 -26.71386,-2.09689 -14.90494,-4.1408 -24.81554,-14.16896 -28.7536,-29.09471 -3.0154,-11.42868 -2.27427,-28.90771 1.7116,-40.36907 5.18193,-14.90077 17.49786,-27.52489 34.65253,-35.51977 21.98833,-10.24759 53.2076,-14.97735 93.0453,-14.09647 37.165,0.82179 62.3714,6.14315 80.5041,16.99535 19.2729,11.53457 29.9015,31.64897 34.5956,65.47119 1.0169,7.32714 1.2038,17.41507 1.5683,84.65178 0.4546,83.87012 0.2783,80.4249 4.5163,88.22715 3.116,5.73656 10.2748,8.9449 16.0788,7.20597 10.2031,-3.05692 17.4308,-21.4341 20.0973,-51.09978 0.4284,-4.76667 1.0178,-8.81667 1.3098,-9 0.2919,-0.18334 2.2106,-0.23057 4.2636,-0.10497 l 3.7328,0.22837 v 2.32138 c 0,4.43698 -2.6995,24.3563 -4.3786,32.30866 -2.843,13.46535 -7.4765,25.91991 -12.1939,32.77642 -5.1323,7.45962 -14.3307,14.27984 -24.0364,17.82195 -2.9971,1.09381 -9.2611,2.78298 -13.9201,3.75373 -7.8128,1.62786 -9.7399,1.76578 -24.8043,1.7753 -14.9411,0.009 -17.1025,-0.13938 -25.3564,-1.74584 -4.9627,-0.9659 -11.4127,-2.54773 -14.3333,-3.51518 -18.726,-6.20293 -32.1161,-18.00042 -36.6451,-32.28649 -0.6393,-2.01667 -1.4049,-3.931 -1.7012,-4.25407 -0.2963,-0.32307 -1.8585,2.23662 -3.4714,5.68819 -12.0821,25.85488 -28.9389,35.56681 -62.82593,36.1967 -6.6,0.12268 -13.5,0.1037 -15.33334,-0.0422 z m 59.08677,-24.65353 c 6.8721,-3.4752 13.6733,-14.42814 16.9275,-27.26079 2.5874,-10.20305 3.0662,-18.99082 2.8517,-52.34099 l -0.1993,-31 -6,0.0513 c -9.55,0.0817 -16.3804,2.96378 -22.481,9.48582 -5.4763,5.85458 -8.8903,13.6026 -10.9258,24.79617 -2.2379,12.30671 -1.787,52.31805 0.7235,64.18888 0.5259,2.48722 1.6334,5.72704 2.4611,7.19961 3.1875,5.6714 10.7133,7.87818 16.6423,4.87995 z M 0.66666667,595.34519 v -5.98815 L 16.833333,589.17852 33,589 33.168364,460.03503 c 0.0926,-70.93073 -0.06288,-129.19621 -0.345503,-129.47884 -0.282628,-0.28262 -7.633392,-0.54352 -16.335031,-0.57977 l -15.82116333,-0.0659 v -5.29122 -5.29122 L 82.5,319.49737 l 81.83333,0.1693 0.19957,4.60698 c 0.14013,3.23484 -0.0584,4.77065 -0.66667,5.15646 -0.47642,0.30221 -5.29199,0.55407 -10.70125,0.55968 l -9.83501,0.0102 0.16834,129.5 0.16836,129.5 25,0.20196 c 32.5969,0.26333 42.15838,-0.71352 57.75172,-5.90019 14.23799,-4.73584 24.02367,-11.04466 36.6285,-23.61436 17.29494,-17.24674 32.7761,-40.29706 51.28126,-76.35408 l 6.67185,-13 5.27545,-0.19666 c 3.03893,-0.1133 5.45105,0.0875 5.68966,0.47354 0.40537,0.65591 -9.70436,128.24764 -10.29182,129.88979 -0.23736,0.66353 -32.9724,0.83333 -160.65237,0.83333 H 0.66666667 Z M 351.33333,596.33333 v -5 h 15.53334 c 11.19259,0 15.75689,-0.22356 16.33333,-0.8 1.24068,-1.24068 1.15435,-200.07598 -0.0873,-201.10648 -0.58168,-0.48274 -6.60962,-0.7979 -17.5,-0.91496 L 349,388.33333 V 383.66667 379 h 72.33333 72.33334 L 494,485 l 0.33333,106 16.16667,0.17852 16.16667,0.17852 v 4.98815 4.98814 H 439 351.33333 Z m 203.11369,4.55813 C 554.20116,600.6456 554,598.39445 554,595.88889 v -4.55556 h 15.58504 c 12.30173,0 15.74303,-0.19038 16.33502,-0.90367 0.55114,-0.66409 0.70535,-35.2632 0.58163,-130.5 l -0.16836,-129.59633 -16,-0.36377 c -8.8,-0.20008 -16.08814,-0.42508 -16.19587,-0.5 -0.10773,-0.0749 -0.10773,-2.31123 0,-4.96956 l 0.19587,-4.83333 70.62544,-0.16973 c 56.05983,-0.13472 70.73496,0.003 71.15643,0.66667 0.29207,0.46001 0.53567,12.19812 0.54127,26.08468 0.009,22.3666 0.12433,25.15358 1.0102,24.41838 0.55,-0.45646 1,-1.13348 1,-1.5045 0,-0.37101 1.36033,-3.54631 3.023,-7.05622 8.12646,-17.15514 21.90113,-32.52106 35.12146,-39.17872 21.0348,-10.59292 59.10847,-12.46255 85.02807,-4.17534 15.79087,5.04878 27.4166,13.04534 36.43433,25.0608 8.27054,11.0199 13.07507,23.14829 16.58,41.85398 1.34067,7.15531 1.37994,9.72297 1.6184,105.77232 0.1972,79.43116 0.4108,98.57706 1.10607,99.1541 0.5448,0.45212 6.60373,0.78102 16.4752,0.89434 l 15.61347,0.17924 V 596.33333 601 l -83.5,0.16925 -83.5,0.16925 v -5.00258 -5.00259 l 11.16666,-0.0102 c 6.14167,-0.005 11.55267,-0.25511 12.0244,-0.55444 0.695,-0.44096 0.81607,-21.34196 0.63787,-110.15645 -0.20293,-101.15828 -0.3108,-110.14578 -1.39873,-116.53005 -1.57807,-9.26092 -3.31494,-13.66869 -6.73294,-17.0867 -4.09526,-4.09525 -7.5968,-5.21723 -15.23913,-4.88298 -5.43607,0.23775 -6.85553,0.56677 -10.77973,2.49865 -14.2572,7.01878 -27.68694,28.59947 -32.95334,52.95376 -2.67506,12.37069 -2.79753,17.43329 -2.5908,107.10175 L 697,591.00001 l 12.33333,0.33333 12.33334,0.33333 v 4.66667 4.66667 l -83.38632,0.16924 c -45.86247,0.0931 -83.58747,-0.0319 -83.83333,-0.27778 z M 615,293.91121 c -42.87752,-3.68004 -66.33311,-22.97828 -71.07052,-58.47375 -1.13679,-8.5175 -0.40825,-24.98381 1.42044,-32.10413 4.53426,-17.65498 13.99453,-29.28703 30.62545,-37.6561 13.16967,-6.62728 36.54446,-12.06299 61.62519,-14.33069 9.67643,-0.87491 37.40137,-1.98741 49.89944,-2.00229 l 9.16667,-0.0109 L 696.66,115.5 C 696.653,70.264247 695.48693,49.829787 691.98833,33.79983 687.75027,14.366763 676.07333,5.9187849 658.57929,9.6268347 650.15384,11.412695 642.43251,16.767313 639.77591,22.666667 638.08599,26.419388 638.04612,34.674565 639.68251,42 c 1.79136,8.019043 1.76752,8 10.01598,8 h 7.00114 l 0.70674,1.833333 c 3.25608,8.44648 4.90362,28.338067 3.00984,36.339287 -5.4447,23.00393 -30.92845,37.28565 -60.41873,33.86014 -26.77177,-3.10974 -39.92209,-17.41837 -41.14011,-44.763807 -1.54466,-34.678982 16.95033,-57.482388 55.62945,-68.5883717 35.1309,-10.0871786 93.57674,-10.6798623 129.50161,-1.3132406 38.1708,9.9521953 54.63413,30.4180663 61.1318,75.9940063 0.93473,6.556206 1.14933,18.550083 1.5146,84.638653 0.41406,74.91371 0.46233,77.11963 1.78233,81.41523 2.94667,9.58934 7.22787,13.94779 14.19547,14.45178 2.94893,0.21331 4.4462,-0.04 6.53473,-1.10549 9.354,-4.77204 15.6574,-22.25079 18.24613,-50.59485 l 0.80674,-8.83334 h 3.48493 c 2.0734,0 3.78073,0.35648 4.21527,0.88011 1.5044,1.81262 -1.55207,26.57731 -4.91987,39.86321 -3.2952,12.99936 -7.9444,23.55895 -13.22887,30.04614 -8.12586,9.97539 -22.4284,16.75872 -40.75173,19.32756 -9.10153,1.27598 -33.0342,1.08711 -42.17647,-0.33286 -28.0996,-4.36438 -47.42333,-17.32328 -53.72293,-36.02768 -0.80387,-2.38683 -1.6598,-4.53786 -1.902,-4.7801 -0.2422,-0.24222 -1.91807,2.69226 -3.72413,6.52107 C 684.672,281.73201 670.2008,291.42461 643,293.97733 c -8.3792,0.78638 -18.34139,0.76285 -28,-0.0661 z m 59.98367,-23.32111 c 6.76453,-1.87799 15.3262,-14.7578 18.67506,-28.09383 2.6658,-10.61624 3.0928,-18.36068 2.87574,-52.16294 L 696.33333,159 l -3.2798,-0.20781 c -8.90973,-0.56454 -18.1724,2.88667 -24.36333,9.07763 -5.95116,5.95114 -9.61933,14.01829 -11.72995,25.79685 -2.25674,12.59394 -1.8261,52.0012 0.6984,63.90904 2.28662,10.7858 8.51088,15.4614 17.32502,13.01439 z m 287.34966,23.65121 C 922.0696,289.88655 897.77947,269.62193 888.961,233.02885 884.9504,216.38657 885.11773,221.03058 884.70873,115 L 884.33333,17.666667 868.365,17.487615 c -11.75453,-0.131802 -16.10587,-0.395684 -16.4898,-1 -0.82287,-1.295428 -0.62713,-8.135675 0.25813,-9.0209483 0.61207,-0.612036 17.20267,-0.8 70.61214,-0.8 38.39666,0 70.28666,0.1820966 70.86666,0.4046593 0.95547,0.3666453 1.05474,10.371302 1.05687,106.500004 0,63.03411 0.272,110.32146 0.66667,116.50777 1.225,19.20205 3.38766,27.37441 8.63203,32.61881 6.4276,6.42759 18.152,7.61232 27.699,2.79892 4.5078,-2.2728 12.8096,-10.75626 16.2844,-16.64085 6.0103,-10.17857 9.5068,-22.71988 10.7242,-38.46508 0.489,-6.32606 0.6605,-39.30749 0.5254,-101.05757 L 1059,17.666667 1045.6667,17.333333 1032.3333,17 l -0.1995,-4.606989 c -0.1401,-3.2348363 0.059,-4.7706443 0.6667,-5.1564583 0.4764,-0.302208 31.0544,-0.5540627 67.9512,-0.5596774 55.5028,-0.00845 67.214,0.145122 67.8317,0.8894794 0.5445,0.6560426 0.7923,37.4412163 0.915,135.8333353 l 0.1683,134.93364 24.8333,0.17478 24.8333,0.17478 10e-5,5.15856 V 289 l -75.8057,-0.17233 c -41.6932,-0.0948 -76.0368,-0.40346 -76.3193,-0.68596 -0.2825,-0.28248 -1.723,-8.60494 -3.2011,-18.49433 -3.2219,-21.55607 -3.2409,-21.65337 -4.227,-21.62467 -0.4292,0.0125 -1.9449,2.42978 -3.3683,5.37175 -7.3186,15.12656 -20.649,28.26346 -34.4581,33.95788 -12.0682,4.97651 -22.39263,6.69083 -41.9539,6.96622 -8.25,0.11615 -16.2,0.0814 -17.66667,-0.0772 z M 0.66612146,283.50263 l -5.452e-4,-5.1693 15.56647674,0.18969 c 12.649169,0.15414 15.71061,0.016 16.335557,-0.737 0.576484,-0.69462 0.726923,-33.54774 0.600735,-131.18969 L 33,16.333333 16.833333,16.154814 0.66666667,15.976295 V 10.666734 5.3571733 L 70.930267,5.3394177 c 38.644983,-0.00977 70.744983,0.1669672 71.333333,0.3927393 0.95859,0.3678445 1.06973,3.3469097 1.06973,28.672502 0,15.544104 0.24468,28.262008 0.54373,28.262008 0.29905,0 1.97339,-3.290597 3.72076,-7.312437 5.97106,-13.743346 16.05831,-26.759974 26.52655,-34.229949 12.33924,-8.805102 27.07382,-13.639601 46.34761,-15.2069179 21.14142,-1.7191892 41.51657,2.3169689 56.30993,11.1545539 6.41931,3.834913 15.728,12.66945 19.88465,18.871786 5.18317,7.734074 9.88716,18.400279 12.66587,28.71963 0.84154,3.1252 1.72946,3.391274 2.79211,0.836667 6.95471,-16.718987 14.7402,-27.770273 26.30565,-37.340116 C 351.47661,17.364621 366.59896,10.708533 386,7.2220913 c 10.40426,-1.8696862 29.78379,-2.0102374 40.33333,-0.29252 20.53374,3.3433837 36.49164,11.7926317 47.0535,24.9134817 7.73778,9.612522 12.56216,19.646196 16.00959,33.29653 4.15774,16.462837 4.14125,16.129637 4.42259,89.360417 0.14742,38.37332 0.006,66.83333 -0.33158,66.83333 -0.32359,0 -1.31052,-0.76872 -2.19318,-1.70827 -0.88266,-0.93955 -2.56484,-2.30159 -3.73818,-3.02675 -1.51427,-0.93587 -2.4513,-2.27575 -3.22902,-4.61722 -1.33494,-4.01912 -2.00068,-4.50288 -3.8764,-2.81678 -2.4802,2.22948 -2.97066,2.2658 -6.49314,0.48082 -1.8842,-0.95479 -3.85555,-1.57108 -4.38078,-1.36954 -0.58306,0.22375 -3.77115,-2.10572 -8.18639,-5.98164 -6.58374,-5.77952 -7.36525,-6.71511 -8.72557,-10.44594 -2.04116,-5.59806 -5.97956,-9.7116 -10.36022,-10.82094 L 439,180.19025 l -0.39027,-4.00478 c -0.41016,-4.20872 -2.19212,-7.55827 -4.74902,-8.92668 -5.46344,-2.92394 -9.28304,-1.97986 -14.6674,3.62532 -6.01027,6.25676 -7.45238,9.7115 -8.45748,20.26074 -0.52194,5.47824 -0.80679,6.28372 -4.42489,12.51272 -2.62987,4.52763 -4.48236,8.79334 -5.79036,13.33334 -2.09541,7.27306 -3.73694,10.96526 -5.22836,11.75984 -0.52739,0.28098 -2.10179,0.69395 -3.49866,0.91773 -1.56777,0.25115 -3.53092,1.30229 -5.12953,2.74655 l -2.58975,2.33968 -0.27143,-84.87736 C 383.61053,89.740953 383.30123,63.251056 382.74174,59 c -1.06337,-8.079518 -3.04677,-15.858863 -4.8998,-19.218041 -4.3081,-7.809734 -16.01369,-8.038902 -31.17527,-0.610341 -5.32102,2.607081 -7.30126,4.066805 -12.38889,9.132397 -5.13732,5.115063 -6.52433,6.989672 -9.14703,12.362652 -5.74424,11.7679 -9.00524,24.450693 -10.45619,40.666663 -0.51579,5.76443 -0.68331,34.33066 -0.54343,92.66667 l 0.2022,84.33333 12.33334,0.33334 L 339,279 l 0.19587,4.83333 0.19588,4.83334 h -77.36254 -77.36254 v -4.9817 -4.9817 l 9.5,-0.18496 9.5,-0.18498 L 203.86602,178 c 0.13399,-67.43207 -0.0387,-103.845353 -0.52676,-111.04334 -0.81454,-12.014181 -2.5342,-21.539326 -4.69427,-26.001434 -4.92315,-10.169871 -19.0799,-9.593443 -29.99581,1.221356 -9.45648,9.368884 -17.783,25.905611 -21.72759,43.151665 -3.53969,15.475783 -3.58826,16.939723 -3.58826,108.154963 v 84.49139 l 1.5,0.35022 c 0.825,0.19262 5.55,0.42334 10.5,0.5127 l 9,0.16248 v 4.66667 4.66666 L 82.5,288.50263 0.66666667,288.67193 Z"
           id="path1501" />
      </g>
    </g>
  </g>
  <g
     id="layer2">
    <g
       id="layer5"
       style="display:inline"
       transform="matrix(0.26458333,0,0,0.26458333,-55.422899,68.137996)">
      <path
         style="display:inline;fill:#e21c26;stroke-width:0.666667"
         d="m 418.66667,366.4089 c -7.01362,-0.50859 -9.56072,-1.37566 -14,-4.76578 -1.65,-1.26004 -4.5,-3.2979 -6.33334,-4.52857 -4.73031,-3.17533 -6.92726,-5.32903 -8.4431,-8.27689 C 387.66286,344.50612 376,316.47833 376,315.45716 c 0,-0.52787 0.9,-1.60062 2,-2.38389 2.44287,-1.73948 2.50909,-2.99759 0.66667,-12.66667 -0.73334,-3.84854 -1.33334,-9.0363 -1.33334,-11.52833 0,-4.63842 1.74111,-13.13833 2.69124,-13.13833 0.29102,0 3.02559,3.375 6.07681,7.5 6.49365,8.77886 7.21024,8.41782 3.99393,-2.01223 -3.03912,-9.85547 -3.05782,-10.2552 -0.88086,-18.82111 2.39986,-9.44292 4.61607,-14.40159 10.61089,-23.74134 6.15252,-9.58544 7.2638,-11.87735 9.08445,-18.73578 0.84423,-3.18023 1.8366,-5.88278 2.20526,-6.00567 0.36867,-0.12289 2.60048,4.18776 4.95959,9.57922 2.35911,5.39147 4.61887,9.91252 5.0217,10.0468 0.40283,0.13427 2.48397,-2.84302 4.62477,-6.61621 5.88557,-10.37341 5.55986,-13.64143 -2.46012,-24.68348 C 420.04953,197.82856 420,197.68475 420,192.78296 c 0,-7.86188 0.97951,-11.17194 4.44735,-15.02902 4.07576,-4.53322 4.88598,-4.40462 4.88598,0.77552 0,7.00967 1.13758,8.52433 15.57646,20.73967 7.01628,5.93581 13.98052,12.01077 15.47609,13.49992 3.17767,3.16405 4.06469,6.08001 6.25801,20.5722 0.77146,5.09739 1.56291,9.52728 1.75878,9.84421 0.72486,1.17285 1.59278,-0.28977 2.95062,-4.97236 2.65835,-9.16749 3.44267,-11.19118 5.10126,-13.16231 0.91684,-1.0896 1.93053,-1.81821 2.25264,-1.61914 0.32212,0.19908 1.22848,2.52489 2.01414,5.16846 1.7618,5.92803 3.13526,8.66164 7.7031,15.33142 1.96656,2.8715 3.57557,5.50125 3.57557,5.84389 0,0.34263 1.5,3.68554 3.33333,7.42868 3.04904,6.22524 3.33235,7.20643 3.32174,11.5041 -0.007,3.02723 -0.71886,7.41854 -2,12.34589 -2.02657,7.79427 -2.36174,10.01918 -1.50937,10.01918 0.26347,0 2.03417,-1.53581 3.93489,-3.41292 1.90386,-1.88021 3.78448,-3.20981 4.18763,-2.96065 0.48305,0.29854 0.73178,4.1624 0.73178,11.36786 0,9.94749 -0.17483,11.58478 -1.97125,18.46066 -2.91885,11.17206 -7.16544,23.75847 -9.1739,27.19038 -5.07606,8.67362 -20.34702,19.67902 -31.45775,22.67083 -8.43071,2.27016 -27.10349,3.15265 -42.73043,2.01947 z m -28.44924,-35.81775 c -0.65862,-4.11301 -1.34868,-6.25981 -2.35721,-7.33333 -3.26661,-3.47716 -3.21451,-0.98668 0.16255,7.77035 1.14078,2.95814 2.31079,5.37843 2.60002,5.37843 0.28924,0 0.10682,-2.61695 -0.40536,-5.81545 z m 103.73344,-51.93231 c 0.86607,-3.43945 0.42766,-4.58357 -1.00538,-2.62377 -1.03332,1.41315 -1.30262,5.70487 -0.35796,5.70487 0.32313,0 0.93664,-1.3865 1.36334,-3.0811 z m -44.46939,-72.40038 c -0.79444,-0.79445 -1.67777,-1.21029 -1.96296,-0.9241 -0.28519,0.28619 0.19898,1.10203 1.07592,1.81296 2.07133,1.67924 2.76252,0.98662 0.88704,-0.88886 z m -57.9343,35.75532 c 0.43623,-2.68815 1.50024,-4.27384 2.86778,-4.27384 1.35002,0 1.12114,1.70566 -0.58163,4.33443 -1.92988,2.97938 -2.77583,2.95697 -2.28615,-0.0606 z m 92.4997,-13.15058 c -1.49873,-3.9419 -0.30626,-6.30175 1.26614,-2.50563 0.56522,1.36455 0.60362,2.31637 0.12776,3.16667 -0.61737,1.10314 -0.74642,1.04194 -1.3939,-0.66104 z M 440,192.02769 c -2.48467,-1.75369 -2.99989,-3.14113 -1.28881,-3.47065 1.47942,-0.28491 4.62214,2.36541 4.62214,3.89795 0,1.64689 -0.4821,1.58509 -3.33333,-0.4273 z"
         id="path1503" />
    </g>
  </g>
</svg>
