<?xml version="1.0" encoding="UTF-8" standalone="no"?>
<!DOCTYPE svg PUBLIC "-//W3C//DTD SVG 1.1//EN" "http://www.w3.org/Graphics/SVG/1.1/DTD/svg11.dtd">
<svg version="1.1" xmlns="http://www.w3.org/2000/svg" xmlns:xlink="http://www.w3.org/1999/xlink"
    preserveAspectRatio="xMidYMid meet" viewBox="0 0 645.12 322.56" width="645.12" height="322.56">
    <defs>
        <path
            d="M502.68 319.2C495.56 317.13 491.11 314.62 486.73 310.17C482.28 305.66 480.49 302.41 478.58 295.31C477.73 292.18 477.67 291.42 477.67 284.41C477.67 277.38 477.73 276.66 478.59 273.45C481.91 261.15 489.86 254.26 505.49 250.14C516.55 247.22 527.73 245.99 546.71 245.6C547.45 245.59 551.14 245.51 557.8 245.38C557.79 232.67 557.78 225.61 557.78 224.2C557.77 202.98 557.56 197.77 556.37 189.53C554.62 177.37 550.63 172.16 542.73 171.75C536.48 171.42 530.44 174.28 528.33 178.59C527.46 180.37 527.35 180.95 527.4 183.58C527.47 186.82 528.34 191.34 529.13 192.6C529.6 193.33 529.88 193.39 533.31 193.39C533.55 193.39 534.78 193.39 536.98 193.39C537.21 193.96 537.33 194.28 537.36 194.35C539.08 198.81 539.95 209.34 538.93 213.34C537.88 217.49 536.46 219.88 532.98 223.33C528.11 228.16 523.25 230.37 515.64 231.23C511.62 231.68 505.46 231.2 501.61 230.13C493.78 227.95 488.58 222.69 486.51 214.85C484.93 208.85 485.32 199.67 487.41 193.65C490.13 185.82 496.6 179.19 505.61 174.99C517.16 169.61 533.55 167.13 554.47 167.59C573.99 168.02 587.23 170.82 596.75 176.52C606.87 182.57 612.45 193.14 614.92 210.9C615.45 214.75 615.55 220.04 615.74 255.36C615.98 299.4 615.89 297.59 618.11 301.69C619.75 304.7 623.51 306.39 626.56 305.47C631.92 303.87 635.71 294.22 637.11 278.64C637.34 276.13 637.65 274.01 637.8 273.91C637.95 273.81 638.96 273.79 640.04 273.86C640.17 273.86 640.82 273.9 642 273.98C642 274.71 642 275.11 642 275.19C642 277.52 640.58 287.99 639.7 292.16C638.21 299.23 635.77 305.77 633.3 309.38C630.6 313.29 625.77 316.87 620.67 318.73C619.1 319.31 615.81 320.2 613.36 320.71C609.26 321.56 608.25 321.63 600.34 321.64C592.49 321.64 591.36 321.56 587.02 320.72C584.41 320.21 581.03 319.38 579.49 318.88C569.66 315.62 562.63 309.42 560.25 301.92C559.91 300.86 559.51 299.86 559.36 299.69C559.2 299.52 558.38 300.86 557.53 302.67C551.19 316.25 542.33 321.35 524.54 321.68C521.07 321.75 517.45 321.74 516.49 321.66C513.13 321.39 505.66 320.06 502.68 319.2ZM556.41 294.4C557.76 289.04 558.02 284.42 557.9 266.91C557.9 265.82 557.86 260.4 557.8 250.63C555.91 250.64 554.86 250.65 554.65 250.66C549.63 250.7 546.05 252.21 542.84 255.64C539.97 258.71 538.17 262.78 537.1 268.66C535.93 275.12 536.17 296.13 537.48 302.37C537.76 303.68 538.34 305.38 538.78 306.15C540.45 309.13 544.4 310.29 547.52 308.71C551.13 306.89 554.7 301.14 556.41 294.4ZM2 316.28L2 313.14L10.49 313.04L18.98 312.95C19.03 272.31 19.06 249.74 19.07 245.22C19.12 207.97 19.04 177.37 18.89 177.22C18.74 177.07 14.88 176.94 10.31 176.92C9.76 176.92 6.99 176.9 2 176.88L2 174.11L2 171.33L44.98 171.42L87.95 171.5C88.02 172.96 88.05 173.76 88.06 173.92C88.13 175.62 88.03 176.43 87.71 176.63C87.46 176.79 84.93 176.92 82.09 176.93C81.74 176.93 80.02 176.93 76.92 176.93L77.01 244.94L77.1 312.95C84.98 313.01 89.35 313.05 90.23 313.05C107.35 313.19 112.37 312.68 120.56 309.96C128.04 307.47 133.17 304.16 139.79 297.55C148.88 288.5 157.01 276.39 166.72 257.46C166.96 257 168.13 254.72 170.23 250.63C171.89 250.57 172.81 250.53 173 250.53C174.6 250.47 175.86 250.57 175.99 250.77C176.2 251.12 170.89 318.12 170.58 318.99C170.46 319.34 153.27 319.43 86.21 319.43C80.6 319.43 52.53 319.43 2 319.43L2 316.28ZM186.16 316.8L186.16 314.17C191.05 314.17 193.77 314.17 194.32 314.17C200.19 314.17 202.59 314.06 202.89 313.75C203.55 313.1 203.5 208.68 202.85 208.14C202.54 207.89 199.38 207.72 193.66 207.66C193.08 207.65 190.17 207.62 184.93 207.57L184.93 205.11L184.93 202.66L222.92 202.66L260.91 202.66L261.08 258.33L261.26 314L269.75 314.09L278.24 314.19L278.24 316.81L278.24 319.43L232.2 319.43L186.16 319.43L186.16 316.8ZM292.59 316.57C292.59 316.41 292.59 315.61 292.59 314.17C297.5 314.17 300.23 314.17 300.78 314.17C307.24 314.17 309.04 314.07 309.35 313.7C309.64 313.35 309.73 295.18 309.66 245.17C309.65 240.63 309.62 217.94 309.57 177.11C304.53 176.99 301.73 176.93 301.17 176.91C296.55 176.81 292.72 176.69 292.66 176.65C292.61 176.61 292.61 175.44 292.66 174.04C292.67 173.87 292.7 173.03 292.77 171.5C315.02 171.45 327.38 171.42 329.86 171.42C359.3 171.34 367 171.42 367.23 171.77C367.38 172.01 367.51 178.17 367.51 185.46C367.51 197.21 367.57 198.67 368.04 198.29C368.33 198.05 368.57 197.69 368.57 197.5C368.57 197.3 369.28 195.63 370.15 193.79C374.42 184.78 381.65 176.71 388.6 173.22C399.64 167.65 419.64 166.67 433.25 171.02C441.54 173.68 447.65 177.87 452.38 184.18C456.73 189.97 459.25 196.34 461.09 206.16C461.8 209.92 461.82 211.27 461.94 261.71C462.05 303.43 462.16 313.48 462.52 313.78C462.81 314.02 465.99 314.19 471.17 314.25C471.72 314.26 474.45 314.29 479.37 314.35L479.37 316.8L479.37 319.25L435.52 319.34L391.67 319.43L391.67 316.8L391.67 314.17C395.19 314.17 397.15 314.17 397.54 314.17C400.76 314.17 403.6 314.03 403.85 313.88C404.22 313.65 404.28 302.67 404.19 256.03C404.08 202.9 404.02 198.18 403.45 194.83C402.62 189.97 401.71 187.65 399.92 185.86C397.77 183.71 395.93 183.12 391.91 183.29C389.06 183.42 388.31 183.59 386.25 184.6C378.76 188.29 371.71 199.62 368.95 212.41C367.54 218.91 367.48 221.57 367.59 268.66C367.59 271.68 367.63 286.79 367.69 314L374.17 314.17L380.64 314.35L380.64 316.8L380.64 319.25C354.37 319.3 339.77 319.33 336.85 319.34C312.77 319.39 292.96 319.32 292.83 319.19C292.7 319.06 292.59 317.88 292.59 316.57ZM287.3 127.27C286.71 122.8 287.09 114.15 288.05 110.41C290.43 101.14 295.4 95.03 304.13 90.63C311.05 87.15 323.32 84.3 336.5 83.11C341.58 82.65 356.14 82.06 362.7 82.06C363.02 82.06 364.63 82.05 367.51 82.05C367.51 71.39 367.51 65.47 367.51 64.28C367.51 40.53 366.9 29.8 365.06 21.38C362.83 11.17 356.7 6.74 347.51 8.68C343.09 9.62 339.03 12.43 337.64 15.53C336.75 17.5 336.73 21.84 337.59 25.68C338.53 29.9 338.52 29.89 342.85 29.89C343.09 29.89 344.32 29.89 346.53 29.89C346.75 30.46 346.87 30.78 346.9 30.85C348.61 35.28 349.47 45.73 348.48 49.93C345.62 62.01 332.23 69.51 316.75 67.71C302.69 66.08 295.78 58.57 295.14 44.21C294.33 25.99 304.04 14.02 324.36 8.19C342.81 2.89 373.5 2.58 392.37 7.5C412.41 12.72 421.06 23.47 424.47 47.41C424.96 50.85 425.07 57.15 425.27 91.85C425.48 131.2 425.51 132.35 426.2 134.61C427.75 139.65 430 141.94 433.66 142.2C435.21 142.31 435.99 142.18 437.09 141.62C442 139.11 445.31 129.93 446.67 115.05C446.7 114.74 446.84 113.19 447.09 110.41C448.19 110.41 448.8 110.41 448.92 110.41C450.01 110.41 450.91 110.6 451.14 110.87C451.93 111.82 450.32 124.83 448.55 131.81C446.82 138.63 444.38 144.18 441.61 147.59C437.34 152.82 429.83 156.39 420.21 157.74C415.43 158.41 402.86 158.31 398.06 157.56C383.3 155.27 373.15 148.46 369.84 138.64C369.42 137.39 368.97 136.26 368.84 136.13C368.72 136 367.84 137.54 366.89 139.56C361.22 151.58 353.62 156.67 339.33 158.01C334.93 158.43 329.7 158.41 324.63 157.98C302.11 156.05 289.79 145.91 287.3 127.27ZM365.94 130.98C367.34 125.4 367.56 121.33 367.45 103.58C367.44 102.49 367.4 97 367.34 87.13C366.31 87.06 365.73 87.03 365.62 87.02C360.94 86.72 356.07 88.53 352.82 91.79C349.7 94.91 347.77 99.15 346.66 105.33C345.48 111.95 345.7 132.64 347.03 138.9C348.23 144.56 351.5 147.02 356.13 145.73C359.68 144.74 364.18 137.98 365.94 130.98ZM468.5 126.01C466.39 117.27 466.48 119.7 466.27 64.02C466.25 60.61 466.19 43.57 466.07 12.9C461.04 12.85 458.24 12.82 457.68 12.81C451.51 12.74 449.23 12.6 449.02 12.29C448.59 11.61 448.7 8.01 449.16 7.55C449.48 7.23 458.19 7.13 486.24 7.13C506.41 7.13 523.15 7.22 523.46 7.34C523.96 7.53 524.01 12.79 524.01 63.27C524.01 96.37 524.16 121.21 524.36 124.46C525.01 134.54 526.14 138.83 528.9 141.59C532.27 144.96 538.43 145.58 543.44 143.06C545.81 141.86 550.17 137.41 552 134.32C555.15 128.97 556.99 122.39 557.63 114.12C557.89 110.79 557.98 93.47 557.9 61.04C557.9 57.84 557.86 41.79 557.8 12.9L550.8 12.73L543.79 12.55C543.73 11.1 543.7 10.3 543.69 10.14C543.62 8.44 543.72 7.63 544.04 7.43C544.29 7.27 560.35 7.14 579.73 7.13C608.87 7.13 615.02 7.21 615.35 7.6C615.63 7.95 615.76 27.26 615.83 78.94C615.83 83.66 615.86 107.28 615.92 149.8L628.96 149.89L642 149.98L642 152.69L642 155.4C618.11 155.34 604.84 155.31 602.19 155.31C580.29 155.26 562.26 155.1 562.11 154.95C561.96 154.8 561.2 150.43 560.43 145.24C558.74 133.92 558.73 133.86 558.21 133.88C557.98 133.89 557.19 135.16 556.44 136.7C552.6 144.64 545.6 151.54 538.34 154.53C532.01 157.15 526.58 158.05 516.31 158.19C511.98 158.25 507.8 158.24 507.03 158.15C485.89 155.86 473.13 145.22 468.5 126.01ZM2 152.51L2 149.8C6.91 149.86 9.63 149.89 10.18 149.9C16.82 149.98 18.43 149.91 18.75 149.51C19.06 149.15 19.14 131.89 19.07 80.61C19.06 76.05 19.03 53.25 18.98 12.2L10.49 12.11L2 12.02L2 9.23L2 6.44C24.14 6.43 36.44 6.43 38.9 6.43C59.2 6.43 76.05 6.52 76.36 6.64C76.87 6.83 76.92 8.4 76.92 21.7C76.92 29.86 77.05 36.54 77.21 36.54C77.37 36.54 78.25 34.81 79.16 32.7C82.3 25.48 87.6 18.64 93.1 14.72C99.58 10.1 107.31 7.56 117.44 6.73C128.54 5.83 139.24 7.95 147.01 12.59C150.38 14.61 155.27 19.25 157.45 22.5C160.17 26.57 162.64 32.17 164.1 37.59C164.54 39.23 165.01 39.37 165.57 38.03C169.22 29.25 173.31 23.44 179.38 18.42C186.23 12.75 194.18 9.25 204.36 7.42C209.83 6.44 220.01 6.36 225.55 7.27C236.33 9.02 244.71 13.46 250.26 20.35C254.32 25.4 256.85 30.67 258.66 37.84C260.85 46.48 260.84 46.31 260.99 84.76C261.06 104.92 260.99 119.86 260.81 119.86C260.64 119.86 260.12 119.46 259.66 118.97C259.2 118.47 258.31 117.76 257.7 117.38C256.9 116.88 256.41 116.18 256 114.95C255.3 112.84 254.95 112.59 253.97 113.47C252.66 114.64 252.41 114.66 250.56 113.72C249.57 113.22 248.53 112.9 248.26 113.01C247.95 113.12 246.28 111.9 243.96 109.86C240.5 106.83 240.09 106.34 239.37 104.38C238.3 101.44 236.23 99.28 233.93 98.7C233.82 98.67 233.24 98.52 232.2 98.26C232.07 96.99 232.01 96.29 231.99 96.15C231.78 93.94 230.84 92.18 229.5 91.47C226.63 89.93 224.62 90.43 221.8 93.37C218.64 96.65 217.88 98.47 217.35 104.01C217.08 106.89 216.93 107.31 215.03 110.58C213.65 112.96 212.68 115.2 211.99 117.58C210.89 121.4 210.03 123.34 209.24 123.76C208.97 123.91 208.14 124.12 207.41 124.24C206.58 124.37 205.55 124.92 204.71 125.68C204.62 125.76 204.17 126.17 203.35 126.91C203.27 100.17 203.22 85.31 203.21 82.34C203.11 50.76 202.95 36.84 202.65 34.61C202.09 30.37 201.05 26.28 200.08 24.52C197.82 20.42 191.67 20.3 183.71 24.2C180.91 25.57 179.87 26.33 177.2 28.99C174.5 31.68 173.78 32.67 172.4 35.49C169.38 41.67 167.67 48.33 166.91 56.84C166.64 59.87 166.55 74.87 166.62 105.51C166.63 108.46 166.66 123.22 166.73 149.8L173.2 149.97L179.68 150.15L179.78 152.69L179.89 155.22L139.26 155.22L98.63 155.22L98.63 152.61L98.63 149.99L103.62 149.89L108.61 149.8C108.67 118.18 108.71 100.62 108.71 97.11C108.78 61.69 108.69 42.57 108.44 38.79C108.01 32.48 107.11 27.48 105.97 25.14C103.39 19.79 95.95 20.1 90.22 25.78C85.25 30.7 80.88 39.38 78.81 48.44C76.95 56.57 76.92 57.33 76.92 105.24C76.92 108.2 76.92 122.99 76.92 149.61C77.4 149.72 77.66 149.78 77.71 149.79C78.15 149.89 80.63 150.02 83.23 150.06C83.54 150.07 85.12 150.1 87.95 150.15L87.95 152.6L87.95 155.05L44.98 155.14L2 155.23L2 152.51Z"
            id="bbtMgmScT"></path>
        <path
            d="M214.44 193.94C213.58 193.28 212.08 192.21 211.12 191.56C208.63 189.89 207.48 188.76 206.68 187.21C205.51 184.94 199.39 170.22 199.39 169.68C199.39 169.41 199.86 168.84 200.44 168.43C201.72 167.52 201.76 166.86 200.79 161.78C200.4 159.76 200.09 157.03 200.09 155.72C200.09 153.29 201 148.82 201.5 148.82C201.66 148.82 203.09 150.6 204.69 152.76C208.1 157.37 208.48 157.18 206.79 151.71C205.2 146.53 205.19 146.32 206.33 141.82C207.59 136.86 208.75 134.26 211.9 129.35C215.13 124.32 215.72 123.12 216.67 119.52C217.12 117.84 217.64 116.43 217.83 116.36C218.02 116.3 219.2 118.56 220.44 121.39C221.67 124.22 222.86 126.6 223.07 126.67C223.28 126.74 224.38 125.17 225.5 123.19C228.59 117.75 228.42 116.03 224.21 110.23C222.52 107.91 222.5 107.83 222.5 105.26C222.5 101.13 223.01 99.39 224.83 97.37C226.97 94.99 227.4 95.05 227.4 97.77C227.4 101.45 228 102.25 235.58 108.66C239.26 111.78 242.92 114.97 243.71 115.75C245.37 117.42 245.84 118.95 246.99 126.56C247.4 129.24 247.81 131.56 247.92 131.73C248.3 132.34 248.75 131.58 249.47 129.12C250.86 124.3 251.27 123.24 252.14 122.2C252.63 121.63 253.16 121.25 253.33 121.35C253.5 121.46 253.97 122.68 254.39 124.07C255.31 127.18 256.03 128.62 258.43 132.12C259.46 133.63 260.31 135.01 260.31 135.19C260.31 135.37 261.1 137.12 262.06 139.09C263.66 142.36 263.81 142.87 263.8 145.13C263.8 146.72 263.43 149.03 262.75 151.62C261.69 155.71 261.51 156.88 261.96 156.88C262.1 156.88 263.03 156.07 264.03 155.08C265.03 154.1 266.01 153.4 266.23 153.53C266.48 153.69 266.61 155.72 266.61 159.5C266.61 164.72 266.52 165.58 265.58 169.19C264.04 175.06 261.81 181.67 260.76 183.47C258.09 188.03 250.07 193.81 244.24 195.38C239.81 196.57 230 197.04 221.8 196.44C218.11 196.17 216.78 195.72 214.44 193.94ZM205.62 173.78C203.9 171.95 203.93 173.26 205.7 177.86C206.3 179.41 206.92 180.68 207.07 180.68C207.22 180.68 207.12 179.31 206.86 177.63C206.51 175.47 206.15 174.34 205.62 173.78ZM260.8 148.98C260.26 149.72 260.12 151.98 260.62 151.98C260.79 151.98 261.11 151.25 261.33 150.36C261.79 148.55 261.56 147.95 260.8 148.98ZM236.95 111.85C236.8 112 237.05 112.43 237.51 112.8C238.6 113.68 238.96 113.32 237.98 112.34C237.56 111.92 237.1 111.7 236.95 111.85ZM209.06 128.87C209.77 128.87 209.65 129.76 208.75 131.14C207.74 132.71 207.3 132.7 207.55 131.11C207.78 129.7 208.34 128.87 209.06 128.87ZM256.8 122.89C257.09 123.61 257.11 124.11 256.86 124.55C256.54 125.13 256.47 125.1 256.13 124.21C255.34 122.14 255.97 120.9 256.8 122.89ZM232.32 103.04C233.1 102.89 234.75 104.28 234.75 105.09C234.75 105.95 234.5 105.92 233 104.86C231.7 103.94 231.42 103.21 232.32 103.04Z"
            id="c5GioQFBYF"></path>
    </defs>
    <g>
        <g>
            <g>
                <use xlink:href="#bbtMgmScT" opacity="1" fill="#020202" fill-opacity="1"></use>
            </g>
            <g>
                <use xlink:href="#c5GioQFBYF" opacity="1" fill="#e21c26" fill-opacity="1"></use>
            </g>
        </g>
    </g>
</svg>